<?xml version="1.0" encoding="UTF-8"?> <svg xmlns="http://www.w3.org/2000/svg" id="Layer_2" data-name="Layer 2" viewBox="0 0 121.02 121.02"> <defs> <style> .cls-1 { fill: #fff; } </style> </defs> <g id="Layer_1-2" data-name="Layer 1"> <g> <circle class="cls-1" cx="60.51" cy="60.51" r="60.51"></circle> <g> <path d="m88.91,98.8c2.11-.49,4.13-.96,6.14-1.43.22-.05.43-.11.66-.14.74-.11,1.3.17,1.45.91.16.79-.38,1.19-1.05,1.36-1.64.4-3.3.75-4.95,1.12-3.71.83-7.42,1.66-11.13,2.49-.65.15-1.31.1-1.54-.57-.13-.39.03-1,.28-1.36.19-.28.72-.36,1.11-.45,2.18-.49,4.36-.96,6.65-1.47-.1-.57-.17-1.1-.29-1.61-1.77-7.88-3.56-15.76-5.32-23.65-.15-.66-.39-.92-1.11-.97-1.75-.13-3.22-1-4.52-2.13-2.66-2.31-4.43-5.28-6.01-8.36-2.41-4.73-4.13-9.72-5.14-14.91-1.14-5.86-2.02-11.78-3.01-17.67-.08-.5-.1-1.02-.13-1.53-.06-1.18.16-1.48,1.29-1.74,3.74-.84,7.48-1.68,11.22-2.52,1.71-.39,3.43-.78,5.14-1.16,1.26-.28,1.68-.1,2.08,1.16,1.16,3.62,2.32,7.24,3.37,10.89,1.57,5.5,2.97,11.05,3.46,16.77.43,5.02.56,10.03-.91,14.93-.61,2.05-1.54,3.92-3.25,5.32-.22.18-.34.68-.27.98,1.27,5.74,2.57,11.47,3.86,17.2.63,2.8,1.26,5.6,1.93,8.54Zm-4.68-54.53c-.25.11-.37.15-.48.21-2.72,1.44-5.47,1.63-8.26.19-.65-.33-1.33-.64-2.03-.85-2.27-.7-4.28-.16-6.08,1.34-.9.76-1.29,1.6-.83,2.76.21.53.27,1.12.41,1.67,1.32,5.33,3.22,10.44,6.11,15.14,1.28,2.08,2.73,4.03,4.83,5.38,2.24,1.44,4.14,1.04,5.35-1.34.77-1.52,1.34-3.19,1.69-4.85.97-4.69.66-9.41.12-14.13-.21-1.83-.54-3.65-.83-5.53Zm-18.64-.78c3.5-2.69,6.94-3.11,10.6-1.08.42.23.87.39,1.33.54,1.98.65,3.79.26,5.43-.96.24-.18.45-.66.38-.92-1.4-4.98-2.84-9.94-4.26-14.91-.17-.59-.46-.72-1.05-.58-4.63,1.09-9.27,2.16-13.9,3.23-.24.05-.46.17-.82.32.76,4.75,1.51,9.46,2.29,14.36Z"></path> <path d="m32.12,98.76c.52-2.31,1.03-4.58,1.54-6.85,1.38-6.24,2.75-12.47,4.11-18.72.07-.32.04-.84-.16-1.01-2-1.63-2.87-3.88-3.51-6.24-.84-3.15-.94-6.37-.89-9.61.12-6.4,1.32-12.64,3.08-18.77,1.29-4.51,2.69-8.99,4.08-13.48.35-1.12.69-1.26,1.78-1.01,5.58,1.25,11.15,2.51,16.74,3.75.88.19,1.27.68,1.17,1.56-1.19,10.07-2.61,20.1-6.25,29.66-1.42,3.72-3.15,7.28-5.68,10.39-.92,1.13-2,2.15-3.12,3.1-1.19,1.01-2.59,1.61-4.2,1.66-.26,0-.67.36-.73.62-1.89,8.28-3.75,16.57-5.62,24.86-.03.15-.05.31-.09.59,1.64.36,3.25.71,4.85,1.06.75.16,1.5.31,2.24.52.85.24,1.31.89,1.08,1.53-.28.78-.89.9-1.64.74-5.3-1.19-10.6-2.36-15.89-3.55-.94-.21-1.29-.67-1.14-1.44.14-.73.69-1.05,1.64-.84,2,.43,3.99.91,5.98,1.36.18.04.36.07.64.12Zm4.91-54.68c-.09.23-.15.35-.18.47-1.07,5.47-1.67,10.99-1.19,16.57.22,2.52.69,5.01,1.91,7.27,1.51,2.78,3.71,3.31,6.13,1.28,1.33-1.11,2.52-2.47,3.5-3.9,3.93-5.73,6.09-12.19,7.52-18.92.07-.33-.11-.81-.34-1.08-2.03-2.4-4.87-3.02-7.78-1.62-3.18,1.53-6.32,2-9.57-.05Zm18.42-.92s.07-.06.08-.11c.76-4.57,1.52-9.14,2.24-13.72.03-.21-.33-.65-.58-.71-1.92-.48-3.86-.89-5.79-1.31-2.99-.66-5.97-1.32-8.98-1.99-.13.3-.25.53-.32.77-1.43,4.94-2.86,9.88-4.3,14.81-.17.59.09.91.52,1.19,1.69,1.06,3.49,1.39,5.41.71.93-.33,1.83-.76,2.75-1.13,1.95-.8,3.93-.91,5.89-.11,1.05.43,2.03,1.05,3.1,1.62Z"></path> <path d="m65.96,21.61c.21-.44.31-.71.45-.95.91-1.53,1.83-3.07,2.76-4.59.52-.85,1.16-1.09,1.8-.64.74.52.62,1.16.21,1.84-.96,1.58-1.91,3.17-2.85,4.76-.37.63-.98.79-1.56.54-.36-.15-.57-.65-.81-.95Z"></path> <path d="m50.96,15.17c.15.11.55.29.76.61,1.06,1.63,2.09,3.28,3.09,4.95.42.7.22,1.52-.44,1.81-.71.32-1.2,0-1.58-.63-.99-1.64-2.03-3.24-3-4.89-.55-.93-.03-1.89,1.17-1.84Z"></path> <path d="m61.66,17.92c0,.96,0,1.91,0,2.87,0,.74-.34,1.26-1.12,1.27-.83.01-1.19-.55-1.18-1.32.02-1.91.06-3.82.13-5.73.02-.75.45-1.21,1.22-1.17.73.03,1.06.53,1.07,1.22.02.96,0,1.91,0,2.87-.04,0-.08,0-.12,0Z"></path> </g> </g> </g> </svg> 