<?xml version="1.0" encoding="UTF-8"?> <svg xmlns="http://www.w3.org/2000/svg" id="Layer_2" data-name="Layer 2" viewBox="0 0 121.02 121.02"> <defs> <style> .cls-1 { fill: #fff; } </style> </defs> <g id="Layer_1-2" data-name="Layer 1"> <g> <circle class="cls-1" cx="60.51" cy="60.51" r="60.51"></circle> <g> <path d="m45.4,86.91c-14.61,0-26.49-11.88-26.49-26.49s11.88-26.49,26.49-26.49,26.49,11.88,26.49,26.49-11.88,26.49-26.49,26.49Zm0-50.66c-13.33,0-24.17,10.84-24.17,24.17s10.84,24.17,24.17,24.17,24.17-10.84,24.17-24.17-10.84-24.17-24.17-24.17Z"></path> <path d="m74.56,87.97c-15.19,0-27.55-12.36-27.55-27.55s12.36-27.55,27.55-27.55,27.55,12.36,27.55,27.55-12.36,27.55-27.55,27.55Zm0-52.67c-13.86,0-25.13,11.27-25.13,25.13s11.27,25.13,25.13,25.13,25.13-11.27,25.13-25.13-11.27-25.13-25.13-25.13Z"></path> <path d="m49.71,38.62l8.13-8.13c.52-.52.52-1.35,0-1.87l-4.65-4.65c-.25-.25-.58-.39-.94-.39h-13.7c-.35,0-.69.14-.94.39l-4.65,4.65c-.52.52-.52,1.35,0,1.87l8.13,8.13c.25.25.58.39.94.39h6.74c.35,0,.69-.14.94-.39Z"></path> </g> </g> </g> </svg> 